<?xml version="1.0" encoding="UTF-8" standalone="no"?>
<!-- Created with Inkscape (http://www.inkscape.org/) -->

<svg
   xmlns:dc="http://purl.org/dc/elements/1.1/"
   xmlns:cc="http://creativecommons.org/ns#"
   xmlns:rdf="http://www.w3.org/1999/02/22-rdf-syntax-ns#"
   xmlns:svg="http://www.w3.org/2000/svg"
   xmlns="http://www.w3.org/2000/svg"
   xmlns:sodipodi="http://sodipodi.sourceforge.net/DTD/sodipodi-0.dtd"
   xmlns:inkscape="http://www.inkscape.org/namespaces/inkscape"
   width="210mm"
   height="297mm"
   viewBox="0 0 210 297"
   version="1.1"
   id="svg8"
   inkscape:version="0.92.2 2405546, 2018-03-11"
   sodipodi:docname="OSRSToolsFavicon.svg">
  <defs
     id="defs2" />
  <sodipodi:namedview
     id="base"
     pagecolor="#ffffff"
     bordercolor="#666666"
     borderopacity="1.0"
     inkscape:pageopacity="0.0"
     inkscape:pageshadow="2"
     inkscape:zoom="0.7"
     inkscape:cx="496.8413"
     inkscape:cy="631.20528"
     inkscape:document-units="mm"
     inkscape:current-layer="layer2"
     showgrid="false"
     inkscape:snap-nodes="false"
     inkscape:window-width="1920"
     inkscape:window-height="1056"
     inkscape:window-x="0"
     inkscape:window-y="0"
     inkscape:window-maximized="1" />
  <metadata
     id="metadata5">
    <rdf:RDF>
      <cc:Work
         rdf:about="">
        <dc:format>image/svg+xml</dc:format>
        <dc:type
           rdf:resource="http://purl.org/dc/dcmitype/StillImage" />
        <dc:title></dc:title>
      </cc:Work>
    </rdf:RDF>
  </metadata>
  <g
     inkscape:groupmode="layer"
     id="layer2"
     inkscape:label="Background"
     style="display:inline">
    <circle
       style="display:inline;fill:#000000;fill-opacity:1;stroke:#000003;stroke-width:1.00012493;stroke-linejoin:miter;stroke-miterlimit:4;stroke-dasharray:none;stroke-opacity:1"
       id="path826"
       cx="99.029755"
       cy="139.76192"
       r="25.4"
       inkscape:export-xdpi="96"
       inkscape:export-ydpi="96" />
  </g>
  <g
     inkscape:groupmode="layer"
     id="layer3"
     inkscape:label="R Rock"
     style="display:inline">
    <path
       style="fill:#8289a2;fill-opacity:1;stroke:#000000;stroke-width:0.26458332px;stroke-linecap:butt;stroke-linejoin:miter;stroke-opacity:1"
       d="m 97.553377,128.6202 c 0,0 -2.271792,13.76438 0.400904,19.37704 2.672699,5.61266 -4.944485,9.22079 -8.018086,9.22079 -3.073599,0 -8.418989,-2.13815 -9.755339,-8.55262 -1.336347,-6.41447 -2.672693,-14.69982 0.80181,-20.04521 3.474503,-5.34539 8.285355,-5.7463 8.285355,-5.7463 0,0 9.621703,-0.13363 8.285356,5.7463 z"
       id="path832"
       inkscape:connector-curvature="0"
       inkscape:export-xdpi="96"
       inkscape:export-ydpi="96" />
  </g>
  <g
     inkscape:groupmode="layer"
     id="layer4"
     inkscape:label="S Rock"
     style="display:inline">
    <path
       style="fill:#8289a2;fill-opacity:1;stroke:#000000;stroke-width:0.26458332px;stroke-linecap:butt;stroke-linejoin:miter;stroke-opacity:1"
       d="m 117.9995,129.68927 c 0,0 2.40542,17.37252 0.13363,20.57976 -2.27179,3.20723 -4.00904,4.40994 -7.34991,4.94448 -3.34087,0.53454 -9.6217,-1.06907 -10.55715,-5.21175 -0.935442,-4.14268 -4.409945,-15.368 -2.138156,-19.51068 2.271796,-4.14268 8.953526,-6.5481 8.953526,-6.5481 0,0 7.61719,-0.80181 10.95806,5.74629 z"
       id="path835"
       inkscape:connector-curvature="0"
       inkscape:export-xdpi="96"
       inkscape:export-ydpi="96" />
  </g>
  <g
     inkscape:groupmode="layer"
     id="layer5"
     inkscape:label="Letter R"
     style="display:inline">
    <path
       style="fill:#000000;fill-opacity:1;stroke:#000000;stroke-width:0.26458332px;stroke-linecap:butt;stroke-linejoin:miter;stroke-opacity:1"
       d="m 82.719917,137.03919 0.668173,10.82441 2.806333,-0.26727 -0.400905,-3.87541 6.280833,3.60814 2.004523,-2.00452 -6.815373,-3.74177 c 0,0 5.879928,-0.13364 5.479023,-3.60814 -0.400905,-3.4745 -4.409945,-3.20723 -4.409945,-3.20723 l -5.879931,0.66817 c 0,0 -1.469982,1.20271 0.267269,1.60362 z"
       id="path838"
       inkscape:connector-curvature="0"
       inkscape:export-xdpi="96"
       inkscape:export-ydpi="96" />
  </g>
  <g
     inkscape:groupmode="layer"
     id="layer6"
     inkscape:label="Inner Letter R">
    <path
       style="fill:#8289a2;stroke:#000000;stroke-width:0.26458332px;stroke-linecap:butt;stroke-linejoin:miter;stroke-opacity:1;fill-opacity:1"
       d="m 86.194423,139.84552 c 0,0 4.677216,-1.87089 4.543581,-2.40543 -0.133636,-0.53454 -4.810853,-0.53454 -4.810853,-0.53454 z"
       id="path841"
       inkscape:connector-curvature="0"
       inkscape:export-xdpi="96"
       inkscape:export-ydpi="96" />
  </g>
  <g
     inkscape:groupmode="layer"
     id="layer7"
     inkscape:label="Letter S">
    <path
       style="fill:#000000;fill-opacity:1;stroke:#000000;stroke-width:0.26458332px;stroke-linecap:butt;stroke-linejoin:miter;stroke-opacity:1"
       d="m 104.27418,146.23475 2.50409,1.84263 c 0,0 6.75633,-0.85045 6.4256,-3.16555 -0.33073,-2.3151 -2.17336,-2.59859 -2.17336,-2.59859 l -3.11831,-1.79539 c 0,0 0.18899,-1.41741 1.65365,-2.40959 1.46466,-0.99219 4.44122,-1.65365 4.48846,-2.22061 0.0473,-0.56697 -0.33072,-0.99219 -1.37016,-1.46466 -1.03943,-0.47247 -2.26786,-0.8032 -2.26786,-0.8032 0.20763,-0.41527 -6.13739,3.48684 -5.5279,6.18936 0.75596,2.4096 2.55134,3.35454 2.55134,3.35454 l 1.27567,0.66146 c 0,0 -3.30729,2.83482 -4.44122,2.4096 z"
       id="path844"
       inkscape:connector-curvature="0"
       sodipodi:nodetypes="ccscccccccccc"
       inkscape:export-xdpi="96"
       inkscape:export-ydpi="96" />
  </g>
</svg>
